<?xml version="1.0" encoding="iso-8859-1"?>
<!-- Generator: Adobe Illustrator 15.0.0, SVG Export Plug-In . SVG Version: 6.00 Build 0)  -->
<!DOCTYPE svg PUBLIC "-//W3C//DTD SVG 1.0//EN" "http://www.w3.org/TR/2001/REC-SVG-20010904/DTD/svg10.dtd">
<svg version="1.0" id="Camada_1" xmlns="http://www.w3.org/2000/svg" xmlns:xlink="http://www.w3.org/1999/xlink" x="0px" y="0px"
	 width="6px" height="6px" viewBox="0 0 6 6" style="enable-background:new 0 0 6 6;" xml:space="preserve">
<path style="fill-rule:evenodd;clip-rule:evenodd;fill:#4D4D4D;" d="M3.588,3.337c-0.075-0.018-0.122-0.055-0.135-0.1
	C3.441,3.182,3.488,3.121,3.593,3.06c0.33-0.193,0.549-0.556,0.549-0.967c0-0.622-0.504-1.126-1.126-1.126
	c-0.64,0-1.157,0.478-1.157,1.126c0,0.411,0.219,0.774,0.549,0.967c0.104,0.061,0.151,0.122,0.139,0.177
	c-0.013,0.045-0.06,0.083-0.135,0.1C1.984,3.435,1.257,3.912,1.292,4.403c-0.046,0.84,3.46,0.84,3.415,0
	C4.742,3.912,4.016,3.435,3.588,3.337z"/>
</svg>
